<svg xmlns="http://www.w3.org/2000/svg" viewBox="0 0 869.58 197.77"><defs><style>.cls-1{fill:none;stroke:#231f20;stroke-miterlimit:10;}.cls-2{fill:#231f20;}.cls-3{fill:#f15858;}</style></defs><g id="Layer_2" data-name="Layer 2"><g id="Layer_1-2" data-name="Layer 1"><line class="cls-1" x1="453.63" y1="151.56" x2="453.57" y2="151.5"/><line class="cls-2" x1="453.63" y1="151.56" x2="446.44" y2="156.78"/><path class="cls-2" d="M453.57,151.5c-2.39,1.77-4.76,3.51-7.13,5.28l-.54.4L405.07,186.8a9.13,9.13,0,0,1-5.38,1.75H356.9a4.58,4.58,0,0,1-2.7-8.29l69.51-50.43.72.51Z"/><path class="cls-3" d="M869.58,1.28a721.2,721.2,0,0,0-283.65,64c-34.08,15.43-78.6,38.82-98.45,53.25L467.63,133c-3,2.11-6.05,4.24-9,6.41l-29.15-21.16-.72-.51L367.94,73.58a4.59,4.59,0,0,1,2.7-8.3h43.45l43.44,31.55,3,2.14A720.81,720.81,0,0,1,826.22,0Q848,0,869.58,1.28Z"/><path class="cls-2" d="M556.64,188.55H516.16a9.22,9.22,0,0,1-5.39-1.74l-48.58-35.25,8.95-6.47c6.76-4.79,13.58-9.42,20.51-14l67.68,49.12A4.58,4.58,0,0,1,556.64,188.55Z"/><path class="cls-2" d="M589.18,173.48A15.6,15.6,0,0,1,593.87,162a15.77,15.77,0,0,1,11.62-4.68A15.3,15.3,0,0,1,616.85,162a16.77,16.77,0,0,1,.09,23,15.36,15.36,0,0,1-11.45,4.6,15.9,15.9,0,0,1-11.62-4.6A15.48,15.48,0,0,1,589.18,173.48Z"/><path class="cls-2" d="M689.2,101.67h19a2.58,2.58,0,0,1,2.32,3.7l-40,82.79a2.56,2.56,0,0,1-2.31,1.45h-4.58a2.57,2.57,0,0,1-2.32-1.45l-40-82.79a2.58,2.58,0,0,1,2.32-3.7H642.5a2.57,2.57,0,0,1,2.35,1.53l21,47,21-47A2.59,2.59,0,0,1,689.2,101.67Z"/><path class="cls-2" d="M805,134.28V185a2.57,2.57,0,0,1-2.57,2.58h-18.1a2.57,2.57,0,0,1-2.57-2.58V137.4q0-7.46-4.42-12.05a15.32,15.32,0,0,0-11.54-4.6,15.89,15.89,0,0,0-11.71,4.6q-4.59,4.59-4.59,12.05V185a2.57,2.57,0,0,1-2.58,2.58H728.61A2.58,2.58,0,0,1,726,185v-80.7a2.59,2.59,0,0,1,2.58-2.58H745a2.58,2.58,0,0,1,2.57,2.58v5.23q9.72-9.72,25.15-9.72,14.92,0,23.59,9.37T805,134.28Z"/><path class="cls-2" d="M104.64,151q5.43,13.14,17.1,18.54t26.54,2.64q20.64-3.84,28.19-20.62l23.67,8.5q-12.9,29.46-47.68,35.91-29.28,5.44-50.58-9.09T75.49,145q-5-26.85,9.39-48.27t42.21-26.58q26.39-4.91,46.74,10.42t25.25,41.72a82.81,82.81,0,0,1,1,11ZM100.48,130,171,116.87q-5.35-14.13-16.21-19.82a35.56,35.56,0,0,0-23.58-3.31q-14.39,2.67-22.52,12.37T100.48,130Z"/><path class="cls-2" d="M54.6,171v26.82H27.41A27.41,27.41,0,0,1,0,170.36V25.25H0A28.36,28.36,0,0,1,28.35,53.61v110a7.33,7.33,0,0,0,7.33,7.32Z"/><path class="cls-2" d="M280.28,69.4a63.42,63.42,0,1,0,63.41,63.43A63.43,63.43,0,0,0,280.28,69.4Zm0,104.35a40.92,40.92,0,1,1,40.92-40.92,40.92,40.92,0,0,1-40.92,40.92Z"/></g></g></svg>